<?xml version="1.0" standalone="no"?>
<!DOCTYPE svg PUBLIC "-//W3C//DTD SVG 20010904//EN"
 "http://www.w3.org/TR/2001/REC-SVG-20010904/DTD/svg10.dtd">
<svg version="1.0" xmlns="http://www.w3.org/2000/svg"
 width="306.000000pt" height="306.000000pt" viewBox="0 0 306.000000 306.000000"
 preserveAspectRatio="xMidYMid meet">
<metadata>
Created by potrace 1.14, written by Peter Selinger 2001-2017
</metadata>
<g transform="translate(0.000000,306.000000) scale(0.100000,-0.100000)"
fill="#000000" stroke="none">
<path d="M1318 2486 c-168 -68 -274 -224 -248 -365 l7 -40 -61 3 c-128 5 -219
-43 -291 -155 -24 -37 -53 -128 -53 -164 1 -64 47 -175 106 -252 39 -53 118
-85 214 -88 77 -3 82 -4 122 -40 65 -60 118 -79 211 -79 67 0 90 5 133 26 41
20 55 24 65 14 46 -45 147 -60 222 -33 36 13 45 13 85 -3 87 -34 210 -9 274
56 15 16 42 48 59 71 22 31 42 46 77 58 93 31 150 104 150 193 0 59 -22 128
-52 159 -13 14 -22 40 -25 75 -5 60 -28 103 -78 147 -32 28 -89 51 -127 51
-11 0 -21 16 -32 53 -9 28 -24 64 -34 79 -50 75 -140 101 -226 66 -22 -9 -31
-9 -33 -1 -10 29 -77 104 -116 131 -64 43 -124 60 -214 60 -60 0 -93 -5 -135
-22z"/>
<path d="M1063 1135 c-18 -8 -33 -18 -33 -22 0 -4 -42 -8 -92 -8 -144 0 -201
-32 -209 -115 -2 -19 -11 -41 -19 -48 -13 -10 -13 -11 2 -6 17 6 17 0 9 -59 0
-5 -7 -5 -13 -2 -7 4 -5 0 5 -8 21 -17 22 -31 2 -24 -8 4 -17 2 -20 -4 -4 -5
-3 -9 2 -8 31 5 38 -10 19 -40 -6 -9 -5 -12 2 -7 12 7 11 -12 -2 -33 -6 -10
-5 -12 2 -7 7 4 12 2 12 -3 0 -10 -14 -15 -33 -12 -5 1 -6 -3 -2 -9 3 -6 11
-8 16 -5 5 4 14 3 21 -1 8 -5 6 -10 -8 -15 -17 -7 -17 -8 -1 -8 9 -1 38 -24
64 -51 26 -28 52 -49 58 -46 5 2 19 7 30 11 17 5 17 5 -2 -7 -21 -13 -23 -16
-23 -39 0 -8 -4 -8 -14 0 -14 12 -46 5 -46 -10 0 -4 6 -6 14 -3 8 3 17 0 21
-6 5 -8 11 -7 23 2 13 11 15 10 9 -5 -4 -11 -3 -16 3 -12 6 3 10 1 10 -5 0 -6
5 -8 10 -5 6 3 10 0 10 -7 0 -10 2 -10 8 -1 9 14 26 5 35 -17 4 -12 6 -12 6 2
1 9 -5 21 -13 25 -19 11 -21 24 -4 35 9 7 8 8 -6 4 -15 -5 -17 -4 -8 7 7 8 8
18 4 22 -4 5 -2 5 4 2 7 -4 15 0 18 9 3 8 10 13 15 10 5 -4 12 -1 14 4 3 6 4
5 2 -2 -1 -7 -8 -12 -14 -10 -13 3 -15 -14 -2 -23 5 -3 13 0 16 6 4 5 13 8 21
5 8 -3 17 1 20 9 4 8 10 15 15 15 5 0 4 -9 -3 -20 -8 -12 -19 -18 -30 -15 -12
4 -15 1 -13 -12 2 -10 4 -20 4 -23 1 -3 5 1 10 9 10 15 31 7 31 -12 0 -8 -3
-8 -9 2 -6 9 -11 10 -15 2 -4 -6 -12 -8 -18 -5 -6 4 -8 3 -5 -3 3 -5 0 -10 -8
-10 -10 0 -12 4 -5 12 7 8 4 18 -10 30 -11 10 -20 13 -20 7 0 -6 5 -14 10 -17
6 -3 10 -12 10 -18 0 -7 -4 -6 -10 3 -15 23 -12 6 5 -26 11 -22 15 -24 15 -10
0 16 2 17 17 5 10 -8 14 -9 10 -2 -11 18 12 26 30 11 12 -9 15 -9 9 0 -4 6 -2
12 4 12 7 0 8 6 1 18 -13 24 5 57 24 42 9 -8 14 -6 19 5 5 13 10 14 27 4 19
-10 21 -9 16 5 -4 10 -3 14 2 11 12 -6 10 -45 -1 -45 -4 0 -8 4 -8 9 0 16 -28
20 -34 4 -4 -10 -2 -14 8 -10 10 4 13 1 10 -7 -4 -10 7 -12 42 -11 26 1 49 6
52 13 2 6 10 8 19 5 11 -4 14 -2 9 5 -4 7 -2 12 4 12 7 0 9 -8 5 -21 -7 -20
-6 -20 19 -4 21 14 24 20 15 31 -6 8 -7 14 -3 14 5 0 15 -9 22 -20 7 -12 17
-18 23 -14 6 3 3 12 -8 21 -17 13 -16 13 4 4 12 -6 23 -8 26 -3 2 4 2 1 1 -5
-4 -17 7 -16 33 2 20 14 23 14 33 -5 7 -13 7 -20 0 -20 -5 0 -10 7 -10 16 0 8
-5 12 -10 9 -6 -4 -8 -10 -5 -15 3 -5 -9 -8 -26 -7 -18 1 -34 -3 -36 -8 -5
-16 116 -12 126 4 7 10 11 10 22 -1 18 -17 39 -21 39 -8 0 5 -4 10 -10 10 -5
0 -10 5 -10 10 0 6 3 9 8 8 4 -1 18 4 30 11 24 13 37 9 37 -11 0 -6 6 -13 14
-16 8 -3 11 0 7 7 -4 6 -2 11 4 11 7 0 9 -8 4 -22 -6 -19 -5 -21 8 -11 8 7 18
10 21 6 4 -3 7 1 7 11 0 10 -5 14 -12 10 -7 -5 -8 -3 -3 6 6 10 11 9 22 -5 16
-23 16 -32 1 -41 -6 -4 -8 -3 -5 3 3 5 0 10 -8 10 -8 0 -12 -4 -10 -8 8 -12
-24 -4 -37 9 -21 21 -29 13 -13 -12 11 -16 13 -26 6 -31 -9 -5 -15 5 -13 26 0
3 -10 5 -23 5 -14 0 -21 -4 -17 -10 3 -6 -2 -5 -11 3 -14 11 -17 11 -17 0 0
-9 -3 -10 -8 -4 -4 6 -15 11 -24 11 -11 1 -15 -5 -12 -19 2 -11 -2 -28 -9 -36
-10 -14 -10 -14 4 -4 9 7 19 9 24 5 4 -4 2 3 -4 16 -10 18 -9 22 4 22 10 0 13
-5 9 -12 -6 -10 -4 -10 7 0 23 21 33 13 13 -10 -19 -23 -19 -23 2 -6 16 14 23
15 34 5 12 -10 12 -9 1 6 -11 14 -11 17 2 17 17 0 30 -27 21 -43 -4 -7 3 -2
15 11 12 12 20 26 16 31 -10 18 28 4 43 -15 14 -18 14 -18 8 -1 -4 13 0 20 13
24 11 3 18 12 16 21 -1 10 3 23 9 31 9 12 8 13 -6 8 -10 -3 -20 -2 -22 2 -3 5
5 7 17 6 31 -3 31 -3 16 -22 -12 -15 -12 -16 6 -10 20 7 20 7 1 -8 -18 -13
-18 -15 -3 -16 9 -1 22 -3 27 -4 6 -1 13 -3 18 -4 4 -1 0 -5 -8 -11 -9 -5 -19
-5 -26 1 -14 11 -44 2 -44 -14 0 -7 4 -7 12 1 7 7 17 12 22 12 6 0 5 -5 -2
-12 -7 -7 -12 -17 -12 -23 0 -5 4 -4 9 4 5 8 17 16 25 18 9 2 24 5 34 6 9 2
18 13 18 25 1 20 -15 26 -27 9 -3 -5 -9 -1 -13 9 -4 10 -4 15 0 11 4 -3 16 3
26 16 18 20 20 21 16 2 -2 -13 3 -20 17 -23 14 -2 16 0 7 6 -9 6 -5 12 15 21
19 9 29 9 31 2 2 -6 8 -9 13 -6 5 4 6 -2 2 -12 -6 -16 -5 -16 11 -4 14 12 19
12 26 2 6 -11 9 -11 14 0 3 8 3 3 -1 -11 -5 -21 -4 -23 9 -13 8 7 18 10 21 6
4 -3 7 -1 7 5 0 7 3 11 8 11 20 -3 25 2 12 12 -13 9 -13 10 0 6 8 -2 14 -9 13
-14 -1 -5 7 -14 18 -21 21 -14 26 -3 7 17 -11 11 -10 12 2 5 8 -4 21 -9 30
-10 8 -1 23 -5 33 -9 13 -6 16 -4 11 9 -3 9 -1 16 6 16 6 0 8 -5 4 -11 -4 -7
-1 -10 7 -7 8 3 13 14 11 24 -2 18 -2 18 10 -1 6 -11 13 -28 13 -37 1 -13 -2
-15 -17 -7 -12 7 -26 5 -46 -5 -22 -11 -32 -12 -41 -3 -8 8 -11 7 -11 -4 0
-12 -2 -12 -10 1 -5 8 -10 10 -10 4 0 -6 8 -18 17 -25 9 -8 14 -9 10 -3 -4 7
2 12 18 12 14 0 22 -5 18 -11 -3 -6 -1 -7 6 -3 6 4 9 12 6 17 -4 5 1 9 10 9
10 0 13 -5 9 -12 -4 -7 -3 -8 4 -4 7 4 12 2 12 -4 0 -6 4 -9 9 -6 5 4 12 0 14
-6 4 -10 6 -9 6 1 1 11 4 11 16 1 9 -7 15 -8 15 -2 0 5 -7 13 -17 16 -14 6
-14 8 3 22 17 14 18 15 1 10 -16 -5 -16 -3 3 24 12 17 26 28 31 25 5 -4 9 -1
9 6 0 7 3 10 6 6 3 -3 -1 -16 -10 -29 -9 -13 -16 -17 -16 -9 0 8 -3 12 -6 8
-12 -12 5 -37 21 -31 8 3 13 10 10 14 -3 4 7 15 20 24 14 10 23 22 19 28 -4 7
-3 8 4 4 9 -5 4 -17 -13 -40 -21 -28 -23 -35 -10 -39 8 -4 13 -12 11 -19 -1
-7 -1 -10 1 -5 3 4 10 4 16 0 7 -3 3 3 -7 15 -11 12 -14 22 -8 22 6 0 14 -5
17 -10 5 -8 11 -8 19 -1 7 6 16 9 19 6 4 -3 5 -2 2 1 -7 11 39 42 57 39 10 -2
18 1 18 7 0 5 -7 8 -15 4 -18 -7 -20 5 -2 23 10 10 8 11 -8 5 -17 -7 -18 -6
-7 8 9 12 10 22 4 35 -12 21 6 53 29 53 10 -1 8 -5 -5 -15 -11 -8 -15 -15 -9
-15 13 0 39 30 27 30 -5 0 -3 4 4 9 11 7 10 9 -3 14 -10 5 -14 3 -9 -5 4 -7 3
-8 -5 -4 -9 6 -9 11 0 22 9 12 15 12 28 2 13 -10 12 -8 -1 8 -19 22 -25 49 -8
39 5 -3 8 0 5 7 -3 7 -6 31 -8 53 -11 117 -66 192 -161 220 -64 19 -109 18
-173 -4 -44 -15 -55 -16 -77 -4 -33 17 -107 19 -145 3 -22 -9 -34 -9 -50 0
-34 18 -354 14 -391 -5 -25 -13 -32 -13 -64 0 -20 9 -36 12 -36 8 0 -3 -10 3
-22 14 -50 45 -104 55 -165 28z m1232 -465 c3 -5 3 -16 -2 -22 -4 -7 -6 -20
-5 -29 4 -22 -62 -71 -76 -57 -8 8 -4 20 14 44 14 18 23 39 19 46 -4 7 2 2 14
-12 18 -23 25 -11 8 16 -7 12 0 24 14 24 4 0 11 -4 14 -10z m-521 -28 c2 -4
-4 -8 -14 -8 -10 0 -16 4 -14 8 3 4 9 8 14 8 5 0 11 -4 14 -8z m-932 -17 c3 0
9 -3 13 -7 4 -3 0 -5 -9 -4 -9 1 -22 8 -29 16 -10 10 -9 11 3 4 8 -5 18 -9 22
-9z m1141 -18 c-3 -5 4 -6 15 -3 11 4 23 2 26 -3 4 -6 -5 -9 -20 -8 -20 2 -28
8 -31 27 -2 19 -1 21 6 10 5 -8 7 -18 4 -23z m-913 13 c0 -5 -4 -10 -10 -10
-5 0 -10 5 -10 10 0 6 5 10 10 10 6 0 10 -4 10 -10z m143 -7 c-4 -10 -9 -11
-19 -2 -18 15 -18 15 5 15 11 0 17 -5 14 -13z m152 7 c-3 -5 -12 -10 -18 -10
-7 0 -6 4 3 10 19 12 23 12 15 0z m40 0 c3 -5 1 -10 -4 -10 -6 0 -11 5 -11 10
0 6 2 10 4 10 3 0 8 -4 11 -10z m59 -22 c-3 -4 -11 -8 -17 -7 -9 0 -9 2 0 5 7
3 9 13 6 22 -4 14 -3 14 5 2 6 -8 8 -18 6 -22z m42 20 c4 -7 3 -8 -4 -4 -7 4
-12 2 -12 -5 0 -7 -3 -10 -6 -6 -6 5 3 27 11 27 2 0 7 -5 11 -12z m58 -4 c3
-8 2 -12 -4 -9 -6 3 -10 10 -10 16 0 14 7 11 14 -7z m23 -6 c-3 -8 -6 -5 -6 6
-1 11 2 17 5 13 3 -3 4 -12 1 -19z m137 7 c-4 -8 -8 -15 -10 -15 -2 0 -4 7 -4
15 0 8 4 15 10 15 5 0 7 -7 4 -15z m144 -10 c-3 -3 -9 2 -12 12 -6 14 -5 15 5
6 7 -7 10 -15 7 -18z m91 2 c0 -9 -2 -8 -6 1 -2 6 -10 9 -15 6 -7 -4 -8 -2 -4
5 9 13 26 5 25 -12z m92 5 c-7 -2 -18 1 -23 6 -8 8 -4 9 13 5 13 -4 18 -8 10
-11z m-878 -4 c13 -10 14 -17 6 -28 -9 -12 -10 -12 -5 3 4 12 2 17 -6 14 -7
-2 -12 -10 -10 -16 1 -6 -2 -11 -8 -11 -13 0 -13 17 1 26 8 4 7 9 -2 15 -8 5
-9 9 -3 9 5 0 18 -6 27 -12z m607 8 c0 -2 -7 -6 -15 -10 -8 -3 -15 -1 -15 4 0
6 7 10 15 10 8 0 15 -2 15 -4z m65 -6 c3 -6 -1 -7 -9 -4 -18 7 -21 14 -7 14 6
0 13 -4 16 -10z m273 2 c15 12 16 11 3 -4 -14 -19 -32 -15 -30 5 0 8 2 8 6 -1
4 -10 8 -10 21 0z m-697 -29 c-8 -15 -10 -15 -11 -2 0 17 10 32 18 25 2 -3 -1
-13 -7 -23z m279 17 c0 -5 -5 -10 -11 -10 -5 0 -7 5 -4 10 3 6 8 10 11 10 2 0
4 -4 4 -10z m202 -12 c-7 -7 -12 -8 -12 -2 0 14 12 26 19 19 2 -3 -1 -11 -7
-17z m-1006 -14 c-4 -9 -2 -22 4 -29 17 -21 -6 -28 -25 -8 -16 15 -16 18 -1
28 9 7 13 15 9 18 -3 4 -1 7 6 7 8 0 11 -6 7 -16z m834 -34 c0 -5 -2 -10 -4
-10 -3 0 -8 5 -11 10 -3 6 -1 10 4 10 6 0 11 -4 11 -10z m370 -16 c0 -2 -9 0
-20 6 -11 6 -20 13 -20 16 0 2 9 0 20 -6 11 -6 20 -13 20 -16z"/>
<path d="M2275 660 c3 -5 8 -10 11 -10 2 0 4 5 4 10 0 6 -5 10 -11 10 -5 0 -7
-4 -4 -10z"/>
<path d="M2247 623 c-5 -7 -5 -13 0 -13 4 0 -3 -7 -15 -16 -21 -14 -22 -41 -1
-28 5 3 7 10 4 15 -4 5 3 9 14 9 11 0 23 5 27 12 4 6 3 8 -4 4 -6 -3 -12 2
-14 11 -3 13 -6 15 -11 6z"/>
<path d="M870 556 c0 -2 8 -10 18 -17 15 -13 16 -12 3 4 -13 16 -21 21 -21 13z"/>
<path d="M2353 698 c1 -7 -4 -12 -11 -10 -8 1 -11 -2 -7 -8 5 -8 11 -8 21 1 7
6 11 15 8 20 -8 13 -14 11 -11 -3z"/>
<path d="M725 655 c-13 -10 -14 -13 -4 -10 9 3 21 0 28 -8 9 -11 8 -17 -6 -28
-15 -12 -16 -12 -10 5 6 16 5 17 -8 6 -12 -10 -13 -15 -3 -21 6 -4 17 -5 23
-1 18 12 44 12 51 0 4 -6 3 -8 -4 -4 -6 3 -13 2 -17 -4 -4 -6 -11 -8 -16 -5
-15 10 -10 -5 8 -23 16 -16 16 -16 10 0 -3 10 -2 20 3 23 6 4 10 2 10 -3 0 -5
14 -9 31 -9 23 0 27 2 15 9 -9 5 -33 27 -54 49 -35 38 -38 39 -57 24z m39 -14
c14 -15 15 -21 4 -27 -7 -4 -10 -3 -5 1 4 5 0 17 -10 27 -9 10 -14 18 -11 18
3 0 13 -9 22 -19z"/>
<path d="M1508 589 c-20 -11 -14 -36 7 -36 12 0 12 3 2 16 -8 9 -8 12 -1 8 7
-4 14 0 18 8 6 17 -2 19 -26 4z"/>
<path d="M1781 591 c-11 -7 -9 -10 8 -16 11 -3 21 -11 21 -17 0 -7 -5 -7 -14
1 -15 12 -46 5 -46 -11 0 -6 7 -5 15 2 13 11 14 10 10 -2 -4 -9 1 -18 11 -22
14 -5 15 -4 5 8 -10 12 -9 15 6 14 10 0 27 3 38 7 16 7 15 4 -5 -13 -14 -12
-19 -21 -12 -22 6 0 12 5 12 11 0 5 4 8 9 5 5 -4 12 0 14 6 4 10 6 10 6 1 1
-7 7 -13 15 -13 8 0 17 -6 20 -12 3 -7 3 -2 0 12 -5 20 -4 23 7 13 7 -7 18
-13 24 -13 5 0 3 5 -5 11 -13 9 -13 10 0 6 8 -2 14 -12 12 -22 -4 -23 14 -11
21 14 3 15 1 18 -11 14 -11 -5 -13 -3 -7 6 6 10 3 11 -14 2 -11 -7 -21 -9 -21
-5 0 3 -6 1 -14 -5 -11 -10 -17 -8 -29 9 -11 15 -17 18 -22 9 -6 -8 -12 -6
-24 9 -11 15 -20 19 -30 13z"/>
<path d="M1037 577 c-2 -7 4 -25 14 -42 11 -16 19 -24 19 -17 0 7 4 11 9 8 18
-11 5 24 -16 44 -15 13 -23 15 -26 7z m32 -41 c-3 -3 -11 5 -18 17 -13 21 -12
21 5 5 10 -10 16 -20 13 -22z"/>
<path d="M1265 567 c-4 -9 -11 -15 -15 -12 -5 3 -12 1 -15 -5 -5 -8 -11 -8
-20 0 -8 7 -20 8 -27 4 -7 -5 -22 -9 -33 -9 -11 0 -25 -4 -32 -8 -6 -4 -13 -4
-16 0 -2 5 -2 1 1 -7 2 -8 5 -21 5 -27 0 -17 2 -16 18 4 10 11 10 14 2 9 -14
-8 -18 6 -6 18 4 4 15 -3 25 -16 11 -14 17 -17 16 -8 -2 8 -7 18 -13 22 -6 5
-6 8 2 8 7 0 17 -8 22 -17 6 -10 11 -12 11 -5 0 6 5 12 11 12 6 0 8 -9 4 -22
-5 -20 -5 -21 5 -5 10 15 14 16 28 6 14 -11 15 -11 5 1 -23 25 -14 34 10 11
21 -19 25 -20 37 -6 9 11 16 12 25 5 9 -8 14 -6 19 5 5 13 9 14 28 3 13 -7 27
-11 32 -10 5 2 6 -4 2 -13 -3 -9 -2 -14 3 -11 5 3 9 16 9 29 0 22 -4 23 -52
22 -41 -1 -54 3 -68 19 -15 19 -17 19 -23 3z m24 -21 c8 -10 8 -16 -2 -25 -11
-8 -18 -6 -33 11 -10 12 -14 18 -7 15 6 -4 14 -3 18 3 8 13 10 13 24 -4z m-75
-4 c2 -4 -4 -8 -14 -8 -10 0 -16 4 -14 8 3 4 9 8 14 8 5 0 11 -4 14 -8z m186
-8 c0 -8 -19 -13 -24 -6 -3 5 1 9 9 9 8 0 15 -2 15 -3z"/>
<path d="M1266 541 c-4 -5 -2 -12 3 -15 5 -4 12 -2 15 3 4 5 2 12 -3 15 -5 4
-12 2 -15 -3z"/>
<path d="M1990 560 c0 -5 10 -10 23 -10 18 0 19 2 7 10 -19 13 -30 13 -30 0z"/>
<path d="M2130 545 c0 -6 5 -16 12 -23 8 -8 8 -15 -3 -29 -12 -16 -12 -17 2
-6 9 7 19 10 23 6 4 -4 4 1 0 11 -5 13 -4 17 3 13 7 -4 10 0 9 10 -3 20 -26
30 -26 11 0 -10 -3 -9 -10 2 -5 8 -10 10 -10 5z"/>
<path d="M798 523 c7 -3 16 -2 19 1 4 3 -2 6 -13 5 -11 0 -14 -3 -6 -6z"/>
<path d="M833 505 c0 -7 6 -11 14 -8 7 3 13 6 13 8 0 2 -6 5 -13 8 -8 3 -14
-1 -14 -8z"/>
<path d="M1036 503 c-6 -14 -5 -15 5 -6 7 7 10 15 7 18 -3 3 -9 -2 -12 -12z"/>
<path d="M1581 504 c0 -11 3 -14 6 -6 3 7 2 16 -1 19 -3 4 -6 -2 -5 -13z"/>
<path d="M1085 500 c3 -5 8 -10 11 -10 2 0 4 5 4 10 0 6 -5 10 -11 10 -5 0 -7
-4 -4 -10z"/>
<path d="M1296 493 c-6 -14 -5 -15 5 -6 7 7 10 15 7 18 -3 3 -9 -2 -12 -12z"/>
<path d="M1706 498 c3 -5 10 -6 15 -3 13 9 11 12 -6 12 -8 0 -12 -4 -9 -9z"/>
<path d="M1810 501 c0 -6 4 -13 10 -16 6 -3 7 1 4 9 -7 18 -14 21 -14 7z"/>
<path d="M1955 500 c3 -5 8 -10 11 -10 2 0 4 5 4 10 0 6 -5 10 -11 10 -5 0 -7
-4 -4 -10z"/>
<path d="M2045 500 c3 -5 11 -10 16 -10 6 0 7 5 4 10 -3 6 -11 10 -16 10 -6 0
-7 -4 -4 -10z"/>
</g>
</svg>
